<?xml version="1.0" standalone="no"?>
<!DOCTYPE svg PUBLIC "-//W3C//DTD SVG 20010904//EN"
 "http://www.w3.org/TR/2001/REC-SVG-20010904/DTD/svg10.dtd">
<svg version="1.0" xmlns="http://www.w3.org/2000/svg"
 width="700.000000pt" height="700.000000pt" viewBox="0 0 700.000000 700.000000"
 preserveAspectRatio="xMidYMid meet">
<metadata>
Created by potrace 1.11, written by Peter Selinger 2001-2013
</metadata>
<g transform="translate(0.000000,700.000000) scale(0.100000,-0.100000)"
fill="#000000" stroke="none">
<path d="M1825 6960 c-51 -11 -94 -39 -119 -78 -28 -45 -33 -62 -40 -132 -13
-124 -25 -203 -33 -209 -4 -4 -48 -20 -98 -36 -49 -16 -141 -55 -203 -86
l-114 -57 -66 51 c-37 28 -84 65 -106 83 -77 66 -153 82 -230 50 -48 -20 -392
-365 -413 -414 -21 -51 -18 -117 7 -160 12 -19 59 -84 105 -143 l85 -107 -44
-93 c-39 -82 -71 -169 -102 -273 -5 -16 -16 -30 -25 -31 -22 -4 -115 -14 -168
-20 -142 -15 -181 -31 -226 -94 l-30 -43 -3 -241 c-2 -133 -1 -265 3 -294 11
-91 81 -155 185 -167 25 -3 70 -8 100 -11 30 -3 69 -8 85 -10 17 -2 42 -4 57
-4 24 -1 29 -8 48 -68 26 -78 37 -106 92 -220 l39 -82 -94 -118 c-52 -65 -102
-132 -111 -150 -21 -41 -21 -115 0 -159 9 -19 100 -117 202 -219 158 -158 192
-187 230 -198 72 -21 123 -7 211 61 93 71 151 117 172 137 15 14 25 11 110
-31 52 -26 136 -62 187 -79 51 -18 94 -34 97 -36 2 -3 7 -29 10 -59 3 -30 7
-64 9 -75 2 -11 7 -54 11 -95 12 -122 55 -195 133 -221 26 -9 118 -13 297 -13
254 0 261 1 302 23 67 38 96 91 108 196 26 247 26 245 50 245 27 0 182 58 282
104 93 44 102 47 119 32 101 -83 215 -169 243 -182 41 -20 108 -20 153 -1 43
18 383 358 409 408 23 45 25 106 5 154 -8 19 -52 81 -97 137 -45 57 -86 108
-90 114 -6 7 12 55 45 125 30 63 67 153 82 202 26 78 31 87 54 88 14 0 32 2
40 3 8 2 44 6 80 10 176 18 213 34 265 111 19 28 20 47 20 305 0 151 -3 287
-7 301 -10 34 -62 88 -102 104 -18 8 -55 17 -82 20 -27 4 -60 8 -74 10 -14 2
-50 7 -80 10 -30 3 -62 8 -70 10 -9 3 -29 47 -48 107 -18 57 -53 143 -78 193
-24 49 -44 90 -44 92 0 1 36 47 80 103 44 55 90 118 101 140 25 47 24 109 -3
163 -11 22 -100 119 -199 217 -207 205 -228 217 -329 197 -32 -7 -68 -31 -214
-146 l-56 -43 -93 45 c-101 51 -170 79 -263 108 -33 10 -61 24 -61 31 0 7 -3
38 -7 68 -3 30 -8 78 -11 105 -13 110 -26 146 -68 186 -50 48 -76 52 -337 53
-135 1 -259 -1 -275 -4z m448 -1339 c407 -108 641 -532 516 -937 -144 -466
-715 -666 -1119 -391 -167 114 -291 308 -317 497 -34 241 42 473 209 639 109
108 264 189 397 207 25 3 47 7 49 9 11 11 200 -6 265 -24z"/>
<path d="M5268 4835 c-1 -1 -43 -6 -93 -9 -205 -14 -222 -18 -273 -61 -59 -49
-70 -87 -71 -233 l-1 -83 -32 -11 c-49 -17 -208 -100 -258 -135 l-44 -30 -89
58 c-49 32 -106 64 -127 70 -82 25 -152 -12 -250 -133 -36 -43 -82 -98 -102
-121 -77 -86 -97 -171 -59 -245 11 -20 51 -71 90 -112 39 -41 71 -80 71 -87 0
-6 -9 -33 -21 -60 -12 -26 -34 -97 -49 -158 l-28 -110 -53 -12 c-30 -6 -72
-14 -94 -17 -67 -10 -137 -51 -167 -98 -27 -42 -27 -47 -23 -153 3 -60 7 -123
9 -140 3 -16 7 -61 11 -98 6 -72 19 -107 54 -144 47 -50 91 -61 257 -62 l81
-1 33 -72 c17 -40 51 -105 75 -144 l42 -70 -70 -108 c-60 -91 -71 -116 -75
-159 -7 -93 10 -115 214 -288 109 -92 144 -112 204 -112 58 -1 104 22 166 81
129 122 119 115 150 99 39 -20 200 -74 246 -82 42 -8 40 -4 67 -141 41 -206
94 -242 331 -221 47 4 112 10 145 13 78 7 119 20 156 51 46 39 60 85 66 213 3
66 10 120 17 126 6 7 47 27 91 46 44 19 110 53 147 76 l68 41 92 -62 c115 -75
169 -92 236 -72 50 15 80 42 172 155 25 30 57 69 73 85 104 113 115 221 30
311 -20 21 -58 62 -84 89 l-48 50 19 38 c21 43 62 167 81 244 10 43 17 53 38
58 26 5 56 11 101 20 58 11 68 14 101 28 80 34 113 105 104 221 -3 45 -8 108
-11 141 -13 185 -28 225 -98 270 -42 28 -72 33 -198 36 -51 1 -88 6 -88 12 0
16 -89 198 -122 249 l-30 48 50 77 c78 123 85 140 80 200 -5 61 -30 100 -99
159 -25 21 -72 62 -104 89 -139 120 -196 143 -278 111 -38 -14 -63 -34 -164
-129 l-32 -30 -93 36 c-78 31 -187 63 -235 71 -17 3 -23 10 -28 35 -3 11 -7
31 -10 44 -3 12 -9 46 -15 75 -21 117 -82 173 -192 178 -31 1 -58 1 -60 -1z
m166 -1099 c286 -67 486 -328 471 -616 -6 -113 -18 -158 -73 -263 -65 -126
-192 -234 -333 -284 -97 -34 -252 -40 -350 -14 -189 51 -345 193 -415 377 -84
224 -26 475 148 644 79 77 202 142 303 162 57 11 188 8 249 -6z"/>
<path d="M2622 2793 c-68 -23 -115 -77 -127 -146 -6 -31 -13 -88 -14 -108 -1
-10 -26 -23 -73 -38 -40 -13 -104 -39 -142 -57 -37 -19 -73 -31 -80 -27 -6 3
-31 23 -56 43 -59 49 -80 59 -131 64 -64 6 -119 -23 -216 -116 -92 -89 -123
-140 -123 -203 0 -43 26 -108 56 -140 11 -11 29 -33 41 -50 l21 -29 -30 -61
c-17 -33 -41 -91 -53 -130 -12 -38 -26 -70 -31 -71 -146 -8 -215 -34 -259 -96
-29 -41 -30 -47 -33 -179 -5 -150 3 -190 45 -240 33 -39 56 -48 167 -68 l89
-16 27 -75 c14 -41 36 -94 48 -117 12 -23 22 -44 22 -46 0 -2 -11 -17 -25 -33
-55 -63 -97 -133 -102 -170 -10 -75 10 -115 108 -218 93 -98 138 -127 198
-131 51 -3 88 12 151 59 30 22 62 46 71 53 13 10 27 7 75 -19 32 -17 88 -41
123 -54 35 -13 65 -24 66 -26 1 -2 5 -34 9 -73 10 -104 23 -141 62 -179 51
-49 89 -59 238 -59 104 0 138 3 163 16 37 20 69 51 88 87 14 27 30 108 34 176
1 17 14 25 64 39 34 11 95 34 135 52 62 29 77 32 90 21 10 -7 38 -30 64 -51
76 -63 142 -77 219 -44 19 8 79 57 131 110 88 86 97 99 108 149 16 70 4 112
-54 188 -24 30 -46 60 -49 67 -4 6 8 40 26 75 19 35 44 93 57 129 l23 66 69 7
c109 10 170 43 206 111 18 36 27 269 12 326 -6 20 -22 50 -38 67 -44 48 -71
59 -207 77 -11 1 -23 3 -26 4 -3 0 -16 32 -28 70 -12 38 -35 97 -52 131 l-29
61 46 57 c72 89 88 152 56 224 -23 51 -172 207 -222 233 -22 12 -55 18 -89 18
-48 -1 -62 -6 -127 -52 l-74 -51 -77 39 c-43 21 -103 46 -133 56 -30 10 -56
19 -57 20 -2 1 -8 37 -14 80 -6 44 -17 91 -24 106 -21 40 -81 87 -120 95 -64
12 -256 10 -293 -3z m253 -884 c169 -38 314 -182 360 -356 15 -57 21 -165 11
-212 -31 -145 -132 -279 -261 -348 -186 -98 -419 -61 -572 91 -159 159 -190
403 -75 597 82 139 197 211 387 242 29 5 93 -1 150 -14z"/>
</g>
</svg>
